<svg xmlns="http://www.w3.org/2000/svg" width="25" height="25" viewBox="0 0 25 25" fill="none">
    <path fill-rule="evenodd" clip-rule="evenodd" d="M12.5 8.59342C10.3426 8.59342 8.59375 10.3423 8.59375 12.4997C8.59375 14.657 10.3426 16.4059 12.5 16.4059C14.6574 16.4059 16.4062 14.657 16.4062 12.4997C16.4062 10.3423 14.6574 8.59342 12.5 8.59342ZM10.1562 12.4997C10.1562 11.2053 11.2056 10.1559 12.5 10.1559C13.7944 10.1559 14.8438 11.2053 14.8438 12.4997C14.8438 13.7941 13.7944 14.8434 12.5 14.8434C11.2056 14.8434 10.1562 13.7941 10.1562 12.4997Z" fill="#2D2D2D"/>
    <path fill-rule="evenodd" clip-rule="evenodd" d="M12.5 1.30176C11.7661 1.30176 11.0957 1.50342 10.3631 1.84381C9.65425 2.17317 8.83374 2.65909 7.80684 3.26723L7.02238 3.73179C5.99513 4.34011 5.1747 4.82597 4.54246 5.29076C3.88869 5.77138 3.38726 6.26333 3.02432 6.90813C2.66195 7.55191 2.49834 8.24025 2.41985 9.05703C2.34373 9.84904 2.34374 10.819 2.34375 12.0372V12.9622C2.34374 14.1804 2.34373 15.1503 2.41985 15.9423C2.49834 16.7591 2.66195 17.4474 3.02432 18.0912C3.38726 18.736 3.88869 19.228 4.54246 19.7086C5.1747 20.1734 5.99514 20.6592 7.02238 21.2676L7.80687 21.7321C8.83373 22.3403 9.65427 22.8262 10.3631 23.1555C11.0957 23.4959 11.7661 23.6976 12.5 23.6976C13.2339 23.6976 13.9043 23.4959 14.6369 23.1555C15.3457 22.8262 16.1662 22.3403 17.1931 21.7321L17.9776 21.2676C19.0048 20.6593 19.8253 20.1734 20.4575 19.7086C21.1113 19.228 21.6127 18.736 21.9757 18.0912C22.338 17.4474 22.5017 16.7591 22.5802 15.9423C22.6563 15.1503 22.6563 14.1804 22.6562 12.9622V12.0372C22.6563 10.819 22.6563 9.84903 22.5802 9.05703C22.5017 8.24025 22.338 7.55191 21.9757 6.90813C21.6127 6.26333 21.1113 5.77138 20.4575 5.29076C19.8253 4.82597 19.0049 4.34012 17.9776 3.73181L17.1931 3.26722C16.1663 2.65908 15.3457 2.17317 14.6369 1.84381C13.9043 1.50342 13.2339 1.30176 12.5 1.30176ZM8.56796 4.63243C9.6379 3.99881 10.3917 3.55344 11.0215 3.26081C11.6356 2.97547 12.0737 2.86426 12.5 2.86426C12.9263 2.86426 13.3644 2.97547 13.9785 3.26081C14.6083 3.55344 15.3621 3.99881 16.432 4.63243L17.1468 5.0557C18.2166 5.68923 18.9697 6.13628 19.532 6.54967C20.0799 6.95246 20.3969 7.2887 20.6141 7.67455C20.8318 8.06143 20.9583 8.51415 21.0248 9.2065C21.0929 9.91514 21.0938 10.8101 21.0938 12.0764V12.9229C21.0938 14.1892 21.0929 15.0842 21.0248 15.7928C20.9583 16.4852 20.8318 16.9379 20.6141 17.3248C20.3969 17.7107 20.0799 18.0469 19.532 18.4497C18.9697 18.8631 18.2166 19.3101 17.1468 19.9436L16.432 20.3669C15.3621 21.0005 14.6083 21.4459 13.9785 21.7385C13.3644 22.0239 12.9263 22.1351 12.5 22.1351C12.0737 22.1351 11.6356 22.0239 11.0215 21.7385C10.3917 21.4459 9.6379 21.0005 8.56796 20.3669L7.85321 19.9436C6.78343 19.3101 6.03027 18.8631 5.46795 18.4497C4.92006 18.0469 4.60312 17.7107 4.38594 17.3248C4.16817 16.9379 4.04172 16.4852 3.97518 15.7928C3.90708 15.0842 3.90625 14.1892 3.90625 12.9229V12.0764C3.90625 10.8101 3.90708 9.91514 3.97518 9.2065C4.04172 8.51415 4.16817 8.06143 4.38594 7.67455C4.60312 7.2887 4.92006 6.95246 5.46795 6.54967C6.03027 6.13628 6.78343 5.68923 7.85321 5.0557L8.56796 4.63243Z" fill="#2D2D2D"/>
</svg>